<svg width="63" height="50" viewBox="0 0 63 50" fill="none" xmlns="http://www.w3.org/2000/svg">
<g clip-path="url(#clip0_6_114)">
<path d="M31.647 50.036C23.516 50.036 15.385 50.036 7.255 50.036C7.228 50.036 7.197 50.037 7.165 50.037C3.622 50.037 0.75 47.165 0.75 43.622C0.75 43.59 0.75 43.559 0.751 43.527V43.532C0.822333 34.0967 0.822333 24.6554 0.751 15.208C0.751 15.197 0.751 15.185 0.751 15.172C0.751 11.619 3.631 8.73903 7.184 8.73903C23.517 8.73903 39.832 8.73903 56.165 8.73903C56.247 8.73503 56.343 8.73303 56.44 8.73303C59.835 8.73303 62.587 11.485 62.587 14.88C62.587 14.983 62.584 15.085 62.579 15.186L62.58 15.172V43.532C62.587 43.641 62.591 43.768 62.591 43.897C62.591 47.292 59.839 50.044 56.444 50.044C56.34 50.044 56.236 50.041 56.133 50.036L56.148 50.037L31.647 50.036ZM31.647 43.871C31.689 43.871 31.74 43.872 31.79 43.872C39.764 43.872 46.229 37.407 46.229 29.433C46.229 21.459 39.764 14.994 31.79 14.994C23.828 14.994 17.372 21.438 17.351 29.394V29.396C17.4 37.281 23.738 43.669 31.599 43.799H31.611L31.647 43.871ZM13.134 19.049C13.095 17.928 12.186 17.031 11.063 17.012H11.061C9.926 17.012 9.006 17.932 9.006 19.067C9.006 20.202 9.926 21.122 11.061 21.122C12.198 21.102 13.114 20.186 13.134 19.051V19.049Z" fill="#CCBA8D"/>
<path d="M43.03 6.16506H20.282C20.639 4.73506 20.961 3.35906 21.318 1.98306C21.396 0.853064 22.332 -0.0339355 23.475 -0.0339355C23.609 -0.0339355 23.741 -0.0219355 23.868 0.00206446L23.855 6.4455e-05H39.688C39.758 -0.00793555 39.839 -0.0129355 39.92 -0.0129355C40.969 -0.0129355 41.835 0.766065 41.974 1.77606L41.975 1.78706C42.315 3.07406 42.636 4.36006 42.958 5.64706C42.994 5.80806 42.994 5.96906 43.029 6.16506H43.03Z" fill="#CCBA8D"/>
<path d="M31.611 43.799C23.652 43.778 17.209 37.322 17.209 29.36C17.209 21.386 23.674 14.921 31.648 14.921C39.622 14.921 46.087 21.386 46.087 29.36C46.087 29.41 46.087 29.46 46.086 29.511V29.503C45.965 37.412 39.535 43.78 31.613 43.799H31.611ZM31.611 39.671C37.306 39.671 41.922 35.055 41.922 29.36C41.922 23.665 37.306 19.049 31.611 19.049C25.929 19.049 21.32 23.645 21.3 29.322V29.324C21.3 29.345 21.3 29.371 21.3 29.396C21.3 35.071 25.9 39.671 31.575 39.671C31.613 39.671 31.651 39.671 31.688 39.67H31.682L31.611 39.671Z" fill="#CCBA8D"/>
<path d="M13.134 19.049C13.115 20.174 12.218 21.083 11.1 21.122H11.096C9.961 21.122 9.041 20.202 9.041 19.067C9.041 17.932 9.961 17.012 11.096 17.012C12.205 17.05 13.095 17.94 13.133 19.046V19.05L13.134 19.049Z" fill="#BDAE82"/>
<path d="M31.879 21.1401C36.257 21.2841 39.769 24.8011 39.902 29.1691V29.1821C39.904 29.2201 39.906 29.2651 39.906 29.3111C39.906 30.4431 39.022 31.3681 37.906 31.4341H37.9C37.895 31.4341 37.888 31.4341 37.882 31.4341C36.737 31.4341 35.809 30.5061 35.809 29.3611C35.77 27.1091 33.965 25.2921 31.722 25.2331H31.716C31.699 25.2331 31.68 25.2341 31.66 25.2341C30.535 25.2341 29.623 24.3221 29.623 23.1971C29.623 23.1651 29.624 23.1341 29.625 23.1021V23.1061C29.679 22.0051 30.586 21.1321 31.696 21.1321C31.76 21.1321 31.823 21.1351 31.885 21.1401L31.877 21.1391L31.879 21.1401Z" fill="#CCBA8D"/>
</g>
<defs>
<clipPath id="clip0_6_114">
<rect width="62" height="50" fill="white" transform="translate(0.75)"/>
</clipPath>
</defs>
</svg>
