<svg width="67" height="50" viewBox="0 0 67 50" fill="none" xmlns="http://www.w3.org/2000/svg">
<g clip-path="url(#clip0_6_146)">
<path d="M0.749986 48.5029V1.49692C1.11199 0.60892 1.96999 -0.00608008 2.96999 -0.00608008C3.02999 -0.00608008 3.08999 -0.00408008 3.14899 0.000919921H3.14099H64.477C64.534 -0.00408008 64.601 -0.00708008 64.668 -0.00708008C65.908 -0.00708008 66.913 0.99792 66.913 2.23792C66.913 2.30492 66.91 2.37192 66.904 2.43692L66.905 2.42892C66.905 11.9029 66.905 21.3779 66.905 30.8339C66.905 36.4749 66.905 42.1149 66.905 47.7559C66.913 47.8219 66.917 47.8989 66.917 47.9769C66.917 49.0759 66.026 49.9669 64.927 49.9669C64.897 49.9669 64.867 49.9659 64.837 49.9649H64.841H3.39499C3.29299 49.9789 3.17599 49.9879 3.05599 49.9879C2.03699 49.9879 1.15799 49.3869 0.754986 48.5209L0.747986 48.5049L0.749986 48.5029ZM62.816 4.14392H4.87499V32.0919L5.51399 31.6539L16.741 23.6039C17.138 23.2059 17.686 22.9599 18.293 22.9599C18.9 22.9599 19.448 23.2059 19.845 23.6039L31.638 32.0559C33.463 33.3699 35.289 34.6849 37.114 35.9629C37.446 36.2189 37.867 36.3739 38.325 36.3739C39.226 36.3739 39.987 35.7759 40.232 34.9549L40.236 34.9409C40.287 34.7709 40.316 34.5759 40.316 34.3729C40.316 33.5999 39.891 32.9259 39.261 32.5729L39.251 32.5679C36.7077 30.7793 34.219 28.9843 31.785 27.1829L31.219 26.7629L31.548 26.5069L41.716 19.2049C42.113 18.8069 42.661 18.5609 43.268 18.5609C43.875 18.5609 44.423 18.8069 44.82 19.2049L62.162 31.6549L62.801 32.0749L62.816 4.14392Z" fill="#BDAE82"/>
<path d="M27.712 9.34597C30.737 9.34597 33.188 11.798 33.188 14.822C33.234 15.09 33.261 15.399 33.261 15.713C33.261 18.738 30.809 21.189 27.785 21.189C24.761 21.189 22.309 18.737 22.309 15.713C22.309 15.398 22.336 15.09 22.387 14.789L22.382 14.821C22.382 14.82 22.382 14.82 22.382 14.819C22.382 11.846 24.751 9.42597 27.705 9.34497H27.713L27.712 9.34597Z" fill="#CCBA8D"/>
</g>
<defs>
<clipPath id="clip0_6_146">
<rect width="66" height="50" fill="white" transform="translate(0.75)"/>
</clipPath>
</defs>
</svg>
