<svg width="130" height="130" viewBox="0 0 130 130" fill="none" xmlns="http://www.w3.org/2000/svg">
<path d="M58.5895 0.13572C58.0966 0.256183 55.6753 0.686409 53.2094 1.09112C6.89696 8.69809 -15.0082 65.9044 13.6635 104.367C22.5923 116.344 43.0969 129.906 44.1124 124.506C44.2396 123.832 43.019 122.978 39.9893 121.624C27.5604 116.065 16.3133 105.112 10.1768 92.5938C-12.111 47.1276 26.0209 -4.32319 75.8154 4.02852C83.2957 5.28359 84.5948 2.66782 77.264 1.11129C73.9273 0.402757 60.3896 -0.303999 58.5895 0.136315V0.13572ZM58.8883 13.5427C50.1318 14.8494 38.8636 19.3896 38.8636 21.6114C38.8636 23.3352 40.1282 23.2017 44.75 20.9901C70.0656 8.8779 100.887 22.1306 110.057 49.0716C125.299 93.8524 74.9804 131.76 36.7716 104.279C15.5398 89.009 10.6438 58.679 25.8856 36.8396C29.9301 31.0443 27.8018 28.5941 23.6717 34.2914C-1.77521 69.3966 24.7927 118.982 67.724 116.507C111.062 114.008 131.783 61.4206 101.96 29.6195C91.0273 17.9613 73.39 11.378 58.8889 13.5415L58.8883 13.5427ZM110.993 21.4488C110.104 22.349 110.784 23.9601 113.629 27.704C134.725 55.4579 127.818 96.9429 98.8527 116.46C85.8008 125.255 74.341 127.692 52.9112 126.233C50.893 126.096 50.5197 126.252 50.5197 127.237C50.5197 131.711 76.1699 130.498 88.8878 125.422C126.181 110.539 140.884 62.4946 118.405 28.9739C114.14 22.6137 111.994 20.4352 110.993 21.4494L110.993 21.4488ZM47.4737 44.1107C46.4136 45.2963 46.3228 46.6867 46.1605 64.2031C45.8938 92.9997 43.0635 92.1292 77.3994 73.8111C94.1331 64.8831 94.2268 65.1632 70.2268 52.4143C51.4626 42.4467 49.5774 41.7584 47.4737 44.1107V44.1107ZM68.2104 55.0052C86.4419 64.6481 86.5368 64.7081 85.2617 65.7798C83.8318 66.982 51.3219 84 50.4564 84C49.7614 84 49.6231 80.8353 49.6231 64.9324C49.6231 51.5574 49.8183 45.8642 50.2759 45.8642C50.6346 45.8642 58.7055 49.9778 68.2109 55.0052H68.2104Z" fill="white"/>
</svg>
