<svg width="61" height="50" viewBox="0 0 61 50" fill="none" xmlns="http://www.w3.org/2000/svg">
<g clip-path="url(#clip0_6_144)">
<path d="M60.093 1.30696V48.781C59.715 49.535 58.948 50.043 58.062 50.043C57.998 50.043 57.935 50.04 57.872 50.035L57.88 50.036H2.444C2.378 50.044 2.301 50.048 2.223 50.048C1.126 50.048 0.237 49.159 0.237 48.062C0.237 47.984 0.241 47.907 0.25 47.831L0.249 47.84C0.249 32.6133 0.249 17.387 0.249 2.16096C0.244 2.10596 0.24 2.04196 0.24 1.97696C0.24 0.879962 1.129 -0.00903808 2.226 -0.00903808C2.297 -0.00903808 2.366 -0.00503808 2.435 0.00196192L2.426 0.000961917C20.916 0.000961917 39.3947 0.000961917 57.862 0.000961917C57.937 -0.00803808 58.024 -0.0140381 58.113 -0.0140381C59 -0.0140381 59.761 0.524962 60.087 1.29296L60.092 1.30696H60.093ZM22.794 24.983V30.575C22.795 30.941 22.846 31.295 22.94 31.631L22.933 31.603C23.288 32.503 24.151 33.128 25.159 33.128C25.669 33.128 26.142 32.968 26.53 32.695L26.522 32.7C29.85 30.784 33.142 28.85 36.435 26.899C37.115 26.531 37.568 25.823 37.568 25.009C37.568 24.195 37.114 23.487 36.446 23.124L36.435 23.118C33.142 21.097 29.763 19.163 26.383 17.212C26.03 16.992 25.601 16.861 25.142 16.861C23.833 16.861 22.773 17.922 22.773 19.23C22.773 19.28 22.775 19.33 22.778 19.379V19.372C22.9 21.236 22.795 23.118 22.795 24.982L22.794 24.983ZM9.693 6.55096V3.57196H3.822V6.55096H9.693ZM3.734 46.376H9.692V43.449H3.734V46.376ZM19.083 3.57096H13.316V6.53296H19.083V3.57096ZM22.706 3.57096V6.53296H28.49V3.48396L22.706 3.57096ZM37.863 6.55096V3.57196H32.096V6.53396L37.863 6.55096ZM47.288 3.57096H41.469V6.53296H47.288V3.57096ZM37.881 46.394V43.554H32.097V46.481L37.881 46.394ZM19.065 46.394V43.554H13.298V46.481L19.065 46.394ZM28.49 46.394V43.554H22.723V46.498L28.49 46.394ZM47.288 43.449H41.469V46.376H47.288V43.449ZM56.539 6.55096V3.48496H50.877V6.55096H56.539ZM56.539 43.449H50.877V46.393H56.556L56.539 43.449Z" fill="#BDAE82"/>
</g>
<defs>
<clipPath id="clip0_6_144">
<rect width="60" height="50" fill="white" transform="translate(0.25)"/>
</clipPath>
</defs>
</svg>
