<svg width="16" height="16" viewBox="0 0 16 16" fill="none" xmlns="http://www.w3.org/2000/svg">
<path d="M3.75 7.72727C3.75 6.95076 3.93939 6.2429 4.31818 5.60369C4.69697 4.96449 5.20597 4.45549 5.84517 4.0767C6.48438 3.69792 7.19223 3.50852 7.96875 3.50852C8.6411 3.50852 9.26136 3.65294 9.82955 3.94176C10.4025 4.23059 10.8759 4.62595 11.25 5.12784C11.6241 5.625 11.8561 6.18845 11.946 6.81818H10.2273C10.1326 6.33049 9.86979 5.93277 9.43892 5.625C9.00805 5.3125 8.51799 5.15625 7.96875 5.15625C7.49527 5.15625 7.06439 5.27225 6.67614 5.50426C6.28788 5.73627 5.97775 6.0464 5.74574 6.43466C5.51373 6.82292 5.39773 7.25379 5.39773 7.72727C5.39773 8.20076 5.51373 8.63163 5.74574 9.01989C5.97775 9.40814 6.28788 9.71828 6.67614 9.95028C7.06439 10.1823 7.49527 10.2983 7.96875 10.2983C8.51799 10.2983 8.98201 10.1444 9.3608 9.83665C9.74432 9.52415 9.9858 9.12405 10.0852 8.63636H11.804C11.714 9.2661 11.4938 9.83191 11.1435 10.3338C10.7931 10.831 10.3433 11.224 9.79403 11.5128C9.24953 11.8016 8.6411 11.946 7.96875 11.946C7.19223 11.946 6.48438 11.7566 5.84517 11.3778C5.20597 10.9991 4.69697 10.4901 4.31818 9.85085C3.93939 9.21165 3.75 8.50379 3.75 7.72727ZM7.89773 15.2273C6.86553 15.2273 5.89489 15.0331 4.9858 14.6449C4.08144 14.2566 3.28362 13.7192 2.59233 13.0327C1.90578 12.3414 1.366 11.5436 0.973011 10.6392C0.584754 9.73485 0.392992 8.7642 0.397727 7.72727C0.402462 6.69034 0.598958 5.7197 0.987216 4.81534C1.38021 3.91098 1.91998 3.11553 2.60653 2.42898C3.29309 1.73769 4.08854 1.19792 4.9929 0.809659C5.89725 0.421401 6.86553 0.227273 7.89773 0.227273C8.93466 0.227273 9.9053 0.421401 10.8097 0.809659C11.7188 1.19792 12.5142 1.73769 13.196 2.42898C13.8826 3.11553 14.42 3.91098 14.8082 4.81534C15.1965 5.7197 15.393 6.69034 15.3977 7.72727C15.4025 8.7642 15.2107 9.73485 14.8224 10.6392C14.4342 11.5436 13.8968 12.3414 13.2102 13.0327C12.5237 13.7192 11.7259 14.2566 10.8168 14.6449C9.90767 15.0331 8.93466 15.2273 7.89773 15.2273ZM7.89773 13.5795C8.70739 13.5795 9.46733 13.428 10.1776 13.125C10.8878 12.822 11.5104 12.4029 12.0455 11.8679C12.5805 11.3329 12.9995 10.7126 13.3026 10.0071C13.6056 9.29687 13.7547 8.5393 13.75 7.73438C13.7453 6.92472 13.5914 6.16477 13.2884 5.45455C12.9853 4.74432 12.5663 4.12169 12.0312 3.58665C11.4962 3.05161 10.8759 2.63258 10.1705 2.32955C9.46496 2.02652 8.70739 1.875 7.89773 1.875C7.0928 1.875 6.33759 2.02652 5.6321 2.32955C4.92661 2.63258 4.30634 3.05398 3.77131 3.59375C3.23627 4.12879 2.81487 4.75142 2.5071 5.46165C2.20407 6.16714 2.05019 6.92472 2.04545 7.73438C2.04072 8.53456 2.18987 9.28977 2.4929 10C2.79593 10.7055 3.21496 11.3258 3.75 11.8608C4.28977 12.3958 4.91241 12.8172 5.6179 13.125C6.32813 13.428 7.08807 13.5795 7.89773 13.5795Z" fill="white"/>
</svg>
